Swarg 1990 1CD Dvdrip X264 AAC [RRG DBB][DADA]



Cover -

 
http://desibbrg.org/images/37135821812571143245.jpg


Screens -



 
http://desibbrg.net/imghost/out.php?i=430066_Swarg.1990.1CD.Dvdrip.X264.AAC.RRG.DADA.DBBIANS.Com.mp4snapshot00.00.012013.03.1011.18.11.jpg 
http://desibbrg.net/imghost/out.php?i=430067_Swarg.1990.1CD.Dvdrip.X264.AAC.RRG.DADA.DBBIANS.Com.mp4snapshot00.27.002013.03.1011.18.50.jpg 
http://desibbrg.net/imghost/out.php?i=430072_Swarg.1990.1CD.Dvdrip.X264.AAC.RRG.DADA.DBBIANS.Com.mp4snapshot01.27.352013.03.1106.45.06.jpg 
http://desibbrg.net/imghost/out.php?i=430071_Swarg.1990.1CD.Dvdrip.X264.AAC.RRG.DADA.DBBIANS.Comthumbs.jpg


Info - 

Genera
Format                           : MP4 Video
File size                        : 860 MiB
Duration                         : 2h 39mn
Overall bit rate                 : 753 Kbps

Video
Format                           : AVC
Format/Info                      : Advanced Video Codec
Format profile                   : Main@L3.0
Format settings, CABAC           : Yes
Format settings, ReFrames        : 3 frames
Duration                         : 2h 39mn
Bit rate                         : 616 Kbps
Width                            : 854 pixels
Height                           : 480 pixels
Display aspect ratio             : 16:9
Frame rate mode                  : Constant
Frame rate                       : 25.000 fps
Color space                      : YUV
Chroma subsampling               : 4:2:0
Bit depth                        : 8 bits
Scan type                        : Progressive
Bits/(Pixel*Frame)               : 0.060
Stream size                      : 704 MiB (82%)

Audio
Format                           : AAC
Format/Info                      : Advanced Audio Codec
Format version                   : Version 4
Format profile                   : LC
Format settings, SBR             : No
Duration                         : 2h 39mn
Bit rate                         : 129 Kbps
Channel(s)                       : 2 channels
Channel positions                : Front: L R
Sampling rate                    : 44.1 KHz
Bit depth                        : 16 bits
Stream size                      : 147 MiB (17%)



    Language:
Hindi
    Running time:
2:39:42
    Released:
May 7, 1990

Cast & Crew
Cast

    Govinda
    Rajesh Khanna
    Juhi Chawla
    Madhavi
    Neena Gupta
    Dilip Dhawan

Directors

    David Dhawan

Producers

    Filmistan Studios


Super Hit Hindi movie Swarg (1990) Synopsis: Kumar Sahib with his hard work and efforts is one of the top industrialists. His family consists of loving wife, two young brothers, one sister and a servant Krishna. Though they are stepbrothers and sister, Kumar loves them immensely as his own children. Unfortunately he faces a downfall in his business and he is in a debt of lacs and crore. His stepbrothers refuse to help him. Emotionally shattered Kumar Sahib suffers a heart attack. Krishna, in spite of his masters financial troubles stands by him. The brothers throw him out of the house thus making Kumar all the more miserable. Krishna comes to Bombay and joins films; soon he becomes the most sought after star. Krishna decides to clear all the debts of Kumar Sahib who helped him during his tough times. But Krishna does not find Kumar Sahib; new owners are occupying the bungalow. Finally he finds Kumar Sahib and decides to teach his brothers a lesson. Watch the family drama in the movie Swarg. 
